PathFileType	4	(X/Y/Z)	32_1_15_p1_0-273_filt_butterworth.trc
DataRate	CameraRate	NumFrames	NumMarkers	Units	OrigDataRate	OrigDataStartFrame	OrigNumFrames
60.0	60.0	6	27	m	60.0	204	273
Frame#	Time	RHip			RKnee			RAnkle			RBigToe			RSmallToe			RHeel			LHip			LKnee			LAnkle			LBigToe			LSmallToe			LHeel			Neck			Head			Nose			RShoulder			RElbow			RWrist			RThumb			RIndex			RPinky			LShoulder			LElbow			LWrist			LThumb			LIndex			LPinky			
		X1	Y1	Z1	X2	Y2	Z2	X3	Y3	Z3	X4	Y4	Z4	X5	Y5	Z5	X6	Y6	Z6	X7	Y7	Z7	X8	Y8	Z8	X9	Y9	Z9	X10	Y10	Z10	X11	Y11	Z11	X12	Y12	Z12	X13	Y13	Z13	X14	Y14	Z14	X15	Y15	Z15	X16	Y16	Z16	X17	Y17	Z17	X18	Y18	Z18	X19	Y19	Z19	X20	Y20	Z20	X21	Y21	Z21	X22	Y22	Z22	X23	Y23	Z23	X24	Y24	Z24	X25	Y25	Z25	X26	Y26	Z26	X27	Y27	Z27	
204	3.4	0.3327254108490661	0.4540785370066814	1.0708278562587286	0.32365149629405965	0.4720803814310604	1.5025997841225869	0.33574473603758437	0.5265523569296321	1.9279364890992168	0.3187417333088319	0.3376730444955476	1.9160874114708482	0.37963572114578303	0.34158034878840915	1.9147370742154548	0.308778494399184	0.6028545908731696	2.0134655131920285	0.13530191198009567	0.4678904301538982	1.0885864357708217	0.14932348125871042	0.5014888327105791	1.5195694324185842	0.14267351051428662	0.523479540451969	1.9527198181666245	0.1416049489207521	0.3108597351098546	1.9054547209488502	0.09286324890272404	0.37793436767368277	1.9352721856297248	0.1497021471164865	0.5579566666293607	2.0050204011403823	0.19709920571795927	0.4345728869544111	0.5254855466758559	0.2052737665053433	0.3866000571004342	0.3096611037928607	0.1984631671995131	0.33647402020266787	0.41000703774647435	0.3576932591604849	0.4548949967756012	0.5979522168629696	0.4439164777704159	0.4679770506596175	0.8621948448603407	0.4232283905683227	0.33266127154845515	0.6973505839343788	0.38027305928646216	0.263816387399959	0.5702413937190909	0.406919455488701	0.2094826256024786	0.5625806434858601	0.4144332152141703	0.18743044405763015	0.6238286568438264	0.07085735215573279	0.45059156428533276	0.6188691953086766	0.008940921375595618	0.48387355205371096	0.8680427986547274	0.10242436290358947	0.3433166037108022	0.7633417760697703	0.11477118838975192	0.3261998828735607	0.6760970445434497	0.11797246123981636	0.25425210635926404	0.6637451975039595	0.13859094219026047	0.2058257717108944	0.7043341992026256
205	3.4166666666666665	0.3331527892394746	0.45460990050780536	1.073602207429564	0.3228746922454243	0.4694542956696913	1.5024236208379014	0.3357101927984858	0.5265177189628629	1.9279331191101003	0.3187044303293974	0.3376038465956684	1.9160704367327088	0.37862255740974066	0.34526989265506947	1.9173397122440279	0.3087751522104943	0.6027592438706698	2.013555472176683	0.13522401796913874	0.4680071045043934	1.090337312863751	0.1493495393447083	0.5014321119632408	1.5196349507717863	0.1426630646422063	0.5234528011654599	1.9526908134106105	0.1416647066828181	0.3108192005293332	1.9051206203142566	0.09288215125133069	0.37780116992590224	1.9324914373261723	0.14977308189665273	0.5577885155142117	2.004872859233632	0.19775915139703024	0.43183861666660944	0.5274276436738938	0.2029953120787889	0.38889889311984066	0.31063292901804507	0.19712820102733664	0.33959404159856726	0.41048857886112944	0.3590653983112942	0.45504109574780705	0.597711555593908	0.442959848935646	0.4739858494421469	0.864207157722946	0.42202171463707283	0.32751782651286293	0.7086063209771319	0.3724622461988447	0.257731832604595	0.5819942451887948	0.3952896535736043	0.21303750690011974	0.578138632351621	0.40816066779819793	0.18340961954958837	0.6390811022951719	0.06972099070520515	0.45411562043065506	0.6204491420789922	0.009345239330906818	0.4867617629856174	0.8659720732694709	0.10212708691140222	0.3434808614180109	0.7691483776855587	0.11673430476759766	0.3235132984151616	0.6808722641265039	0.12014191866747556	0.2444923569359702	0.6690619717994385	0.142023290878082	0.20989278056630822	0.7124147784568955
206	3.433333333333333	0.3337685587254142	0.45554567039618304	1.0756927619286318	0.32254372404793524	0.46834153618760255	1.5022915200354605	0.33572971065436735	0.5264852892327678	1.9279375962836196	0.3187128922451449	0.3376590303457122	1.91615454379782	0.37821900543674336	0.3466440858393995	1.9183618658731714	0.30881392914547334	0.6027598990697739	2.013632812068057	0.13511220102010565	0.46846667172339546	1.092606414716262	0.14933314040579712	0.5013931884763679	1.5195041009461867	0.1426726023747182	0.5234287085864775	1.9526824336811284	0.1418355700109626	0.31078251948065905	1.9044649024017417	0.09355938515574391	0.3777636702209785	1.9325960014239851	0.14980875497943033	0.5577394722216265	2.004813251583961	0.19795326806770863	0.4307929904194976	0.5287571461436057	0.20135787916152037	0.38953059890794045	0.31138806041023104	0.19604280428200846	0.3431926766755135	0.4111320401860764	0.36023918567486574	0.455247587240826	0.5980663794059281	0.44258803042510636	0.47658103356940446	0.8645920657167059	0.4195402804742421	0.3236964576259301	0.7177669383412835	0.3681270400208556	0.2523119579524046	0.595262902481295	0.38398871760973907	0.22007173985503264	0.5967632647392354	0.3990433570755124	0.18506826464698953	0.6583553408713572	0.06816916996450843	0.4584500646579416	0.6217512435497137	0.009495742871471495	0.48978215109024825	0.8644808277300426	0.10131398394318808	0.34396001861478864	0.7750557794663565	0.12063170423968968	0.3183330358969936	0.6861117998395128	0.12460777614072406	0.23646352918474944	0.6749184110560551	0.14529566528810264	0.2160414519485333	0.7217730050866533
207	3.45	0.33376296871200983	0.4569272585636189	1.076893697431001	0.32253885830079343	0.4682710338927186	1.5021918012207798	0.3357750837578882	0.5264617800816327	1.9279487056046436	0.3187374290470388	0.33785914443350407	1.9162481548462498	0.37818513883430993	0.3465212975142834	1.9183699253966477	0.3088739962814325	0.6028168513494787	2.0136684384712105	0.13505185536893005	0.46923616780903316	1.093949607675678	0.1493420594660089	0.5014127394903078	1.5194801779588905	0.1426893061799441	0.5234009003550741	1.952675684640638	0.1420431725509505	0.3108402860381039	1.9037486197587987	0.09447650650031715	0.3778016757614984	1.934888672983881	0.14982352205178628	0.5577078863976154	2.0047665658931626	0.19745598067496414	0.43283360811456684	0.5295679608278266	0.20005689097810606	0.3890010773560054	0.31205963244696794	0.1953198216368083	0.3447315829343251	0.41203016243260004	0.3609054087998054	0.45534437994226046	0.5991682630017572	0.44193188223324603	0.48092133078731547	0.8651859031530519	0.4175837046818692	0.3228801202148508	0.7255298502054	0.3659125833669597	0.2472223300633032	0.6109769319448825	0.3752286866582488	0.22675086130589875	0.617341437796498	0.3891185436803427	0.190192118712353	0.6786169130236148	0.06688228062593615	0.46170577606750407	0.6226922771676782	0.009468578422752852	0.4935957424975247	0.864178697679018	0.10016255078241046	0.3447669670932047	0.7803865873760477	0.12600677077936276	0.31065200442200236	0.692252751482562	0.13067668391290338	0.23109058184327838	0.6809767092161858	0.14720465917038608	0.2242068821320639	0.7330936237533283
208	3.466666666666667	0.332015479961305	0.4586241779483997	1.0769381007286856	0.32269353954167174	0.4686531492821459	1.5021541266746057	0.3358134908563343	0.5264621875481745	1.927954168972846	0.3187741384201162	0.33806329895002335	1.916368828284137	0.37820864896520295	0.3460499444789039	1.9181069996933364	0.3089275867093613	0.6028847849225281	2.0136683548035563	0.13507160423964623	0.47004039330364	1.0936156944168351	0.1494311896646525	0.501601961256279	1.5199833370439342	0.14270262102552406	0.5233673116479733	1.9526673690296916	0.14224337247990282	0.3109604704659966	1.9030824091993024	0.09512585571156576	0.3778621500826986	1.9371853998075923	0.14982104226100257	0.5576014912434878	2.0046702827074614	0.19616241075949017	0.43680055904942816	0.5308003352009928	0.19889032047827787	0.3881325692038293	0.3127735414618647	0.19461081272732517	0.3429718410071942	0.41308735074875447	0.36118500523904434	0.455128697886818	0.6008800000829577	0.44021307112997154	0.4885415302790068	0.8667550913126304	0.41755462751332734	0.3241343410104498	0.7328863322613064	0.3638912912626233	0.24102044933886455	0.6308465960257761	0.36980045534593614	0.22586795959988804	0.6388559602739952	0.38209730527058294	0.19576769462260557	0.6955917413236701	0.0661650097864658	0.4629997179448687	0.623492309400249	0.009411053357116046	0.49780459272624833	0.8653557791425532	0.09895931828429656	0.3462795094882246	0.7853850265720931	0.13201187010637844	0.3008466058978538	0.6980329873541167	0.1366531641616898	0.22796639249588996	0.686696019629304	0.14735488415861656	0.23164151913725162	0.7447476093864575
209	3.4833333333333334	0.3288190258565573	0.4601562089645225	1.076254922935767	0.322924795599361	0.46927645712761185	1.502360986539408	0.335832600517814	0.5265187750799147	1.9279562665653678	0.31881192371545225	0.3380851653988511	1.9164773991207567	0.37814956433210595	0.3458471358932641	1.9178526010856434	0.3089397177174338	0.602955607637993	2.013650647090818	0.13518381039827498	0.47056440329952665	1.0927264300399113	0.14964777219099407	0.5020795788919907	1.5214507002810072	0.14271431158631576	0.5233463254546972	1.9527010001708593	0.14245700480989754	0.31101292318865864	1.9023529613427557	0.09535846498588414	0.377902427978029	1.9382496176687232	0.1497975721585407	0.5574694583323845	2.0045669041174357	0.1945217165764656	0.4401669243494323	0.5327857355575342	0.19809101604938414	0.38748162166716044	0.31346543981777786	0.19380315482199703	0.33938786332683357	0.41389714527685917	0.3612918586528356	0.45468231336078635	0.6028512989315651	0.43780579469757513	0.49576386961183966	0.8686637073673205	0.4189238509603935	0.3252760167143388	0.7406321237740856	0.3608380023861352	0.23231142572499983	0.6532546041391899	0.36734877007539846	0.21052104303457175	0.6584374874736775	0.3795652408336894	0.20027081153396892	0.7081911064618411	0.06584057382170498	0.46297588894392405	0.6243379207940346	0.00941527636898552	0.5019496844103433	0.8679545370064711	0.09769618282055643	0.34901041399683946	0.791124490042917	0.13748066068414186	0.2901690232091798	0.7020895877871516	0.14089711654362147	0.22558780061771672	0.6920205859088935	0.1463762349944773	0.23623438173963737	0.7540730017090935
